<svg width="280" height="130" viewBox="0 0 280 130" fill="none" xmlns="http://www.w3.org/2000/svg">
  <!-- Abstract hand/finger shapes -->
  <path d="M20 20 Q40 10 60 20 Q80 30 100 20 Q120 10 140 20 Q160 30 180 20 Q200 10 220 20 Q240 30 260 20" 
        stroke="url(#gradient1)" stroke-width="3" fill="none" opacity="0.3"/>
  <path d="M20 40 Q40 30 60 40 Q80 50 100 40 Q120 30 140 40 Q160 50 180 40 Q200 30 220 40 Q240 50 260 40" 
        stroke="url(#gradient2)" stroke-width="2" fill="none" opacity="0.2"/>
  <path d="M20 60 Q40 50 60 60 Q80 70 100 60 Q120 50 140 60 Q160 70 180 60 Q200 50 220 60 Q240 70 260 60" 
        stroke="url(#gradient1)" stroke-width="2" fill="none" opacity="0.2"/>
  <path d="M20 80 Q40 70 60 80 Q80 90 100 80 Q120 70 140 80 Q160 90 180 80 Q200 70 220 80 Q240 90 260 80" 
        stroke="url(#gradient2)" stroke-width="2" fill="none" opacity="0.2"/>
  <path d="M20 100 Q40 90 60 100 Q80 110 100 100 Q120 90 140 100 Q160 110 180 100 Q200 90 220 100 Q240 110 260 100" 
        stroke="url(#gradient1)" stroke-width="2" fill="none" opacity="0.2"/>
  
  <defs>
    <linearGradient id="gradient1" x1="0%" y1="0%" x2="100%" y2="0%">
      <stop offset="0%" stop-color="#461e10"/>
      <stop offset="50%" stop-color="#09543d"/>
      <stop offset="100%" stop-color="#461e10"/>
    </linearGradient>
    <linearGradient id="gradient2" x1="0%" y1="0%" x2="100%" y2="0%">
      <stop offset="0%" stop-color="#09543d"/>
      <stop offset="50%" stop-color="#461e10"/>
      <stop offset="100%" stop-color="#09543d"/>
    </linearGradient>
  </defs>
</svg>
